# xmcd
#
# Track frame offsets: 
#        150
#        37420
#        51205
#        62872
#        84850
#        174772
#
# Disc length: 3012 seconds
#
# Revision: 0
# Processed by: cddbd v1.5.2PL0 Copyright (c) Steve Scherf et al.
# Submitted via: ExactAudioCopy v1.0b1
#
DISCID=480bc206
DTITLE=Smetana, Bedrich - Libuse (Kosler, Benackova, Zitek, Svorc, Pra
DTITLE=ger Nationaltheater) - CD 3
DYEAR=1985
DGENRE=Oper
TTITLE0=Akt 3, Szene 1 - Mír zjednán mezi obema zas bratry (Libuse)
TTITLE1=Akt 3, Szene 2 - On jde! (Libuse)
TTITLE2=Akt 3, Szene 3 - Muz vitej nám, nevesto ctnà (Die Mädchen)
TTITLE3=Akt 3, Szene 4 - Nerekla vám, ze data vsechnu moc (Chrudos)
TTITLE4=Akt 3, Szene 5 - Hoj, tvrdy Vyserad, bud' stokrát vitán! (Prem
TTITLE4=ysl)
TTITLE5=Bild 1 - Tam kráci rek, jenz zemi sesterskou (Libuse)
EXTD=
EXTT0=
EXTT1=
EXTT2=
EXTT3=
EXTT4=
EXTT5=
PLAYORDER=
